<svg width="1297" height="103" viewBox="0 0 1297 103" fill="none" xmlns="http://www.w3.org/2000/svg">
<mask id="path-1-outside-1" maskUnits="userSpaceOnUse" x="0.809998" y="0.220001" width="1296" height="103" fill="black">
<rect fill="white" x="0.809998" y="0.220001" width="1296" height="103"/>
<path d="M142.75 6L112.07 97H101.93L75.28 19.39L48.5 97H38.49L7.81 6H17.69L43.95 84.26L71.12 6H80.09L106.87 84.65L133.52 6H142.75Z"/>
<path d="M214.665 72.69H163.965L153.045 97H143.035L184.635 6H194.125L235.725 97H225.585L214.665 72.69ZM211.155 64.89L189.315 16.01L167.475 64.89H211.155Z"/>
<path d="M263.889 14.32H231.909V6H305.489V14.32H273.509V97H263.889V14.32Z"/>
<path d="M385.207 88.68V97H320.857V6H383.257V14.32H330.477V46.69H377.537V54.88H330.477V88.68H385.207Z"/>
<path d="M469.96 97L449.16 67.75C446.82 68.01 444.393 68.14 441.88 68.14H417.44V97H407.82V6H441.88C453.493 6 462.593 8.77333 469.18 14.32C475.767 19.8667 479.06 27.4933 479.06 37.2C479.06 44.3067 477.24 50.33 473.6 55.27C470.047 60.1233 464.933 63.6333 458.26 65.8L480.49 97H469.96ZM441.62 59.95C450.633 59.95 457.523 57.9567 462.29 53.97C467.057 49.9833 469.44 44.3933 469.44 37.2C469.44 29.8333 467.057 24.2 462.29 20.3C457.523 16.3133 450.633 14.32 441.62 14.32H417.44V59.95H441.62Z"/>
<path d="M501.765 6H511.385V88.68H562.345V97H501.765V6Z"/>
<path d="M616.321 97.78C607.307 97.78 599.117 95.7867 591.751 91.8C584.471 87.7267 578.751 82.18 574.591 75.16C570.517 68.14 568.481 60.2533 568.481 51.5C568.481 42.7467 570.517 34.86 574.591 27.84C578.751 20.82 584.471 15.3167 591.751 11.33C599.117 7.25667 607.307 5.22 616.321 5.22C625.334 5.22 633.437 7.21333 640.631 11.2C647.911 15.1867 653.631 20.7333 657.791 27.84C661.951 34.86 664.031 42.7467 664.031 51.5C664.031 60.2533 661.951 68.1833 657.791 75.29C653.631 82.31 647.911 87.8133 640.631 91.8C633.437 95.7867 625.334 97.78 616.321 97.78ZM616.321 89.2C623.514 89.2 630.014 87.5967 635.821 84.39C641.627 81.0967 646.177 76.59 649.471 70.87C652.764 65.0633 654.411 58.6067 654.411 51.5C654.411 44.3933 652.764 37.98 649.471 32.26C646.177 26.4533 641.627 21.9467 635.821 18.74C630.014 15.4467 623.514 13.8 616.321 13.8C609.127 13.8 602.584 15.4467 596.691 18.74C590.884 21.9467 586.291 26.4533 582.911 32.26C579.617 37.98 577.971 44.3933 577.971 51.5C577.971 58.6067 579.617 65.0633 582.911 70.87C586.291 76.59 590.884 81.0967 596.691 84.39C602.584 87.5967 609.127 89.2 616.321 89.2Z"/>
<path d="M725.373 97.78C716.36 97.78 708.17 95.7867 700.803 91.8C693.523 87.7267 687.803 82.18 683.643 75.16C679.57 68.14 677.533 60.2533 677.533 51.5C677.533 42.7467 679.57 34.86 683.643 27.84C687.803 20.82 693.523 15.3167 700.803 11.33C708.17 7.25667 716.36 5.22 725.373 5.22C734.387 5.22 742.49 7.21333 749.683 11.2C756.963 15.1867 762.683 20.7333 766.843 27.84C771.003 34.86 773.083 42.7467 773.083 51.5C773.083 60.2533 771.003 68.1833 766.843 75.29C762.683 82.31 756.963 87.8133 749.683 91.8C742.49 95.7867 734.387 97.78 725.373 97.78ZM725.373 89.2C732.567 89.2 739.067 87.5967 744.873 84.39C750.68 81.0967 755.23 76.59 758.523 70.87C761.817 65.0633 763.463 58.6067 763.463 51.5C763.463 44.3933 761.817 37.98 758.523 32.26C755.23 26.4533 750.68 21.9467 744.873 18.74C739.067 15.4467 732.567 13.8 725.373 13.8C718.18 13.8 711.637 15.4467 705.743 18.74C699.937 21.9467 695.343 26.4533 691.963 32.26C688.67 37.98 687.023 44.3933 687.023 51.5C687.023 58.6067 688.67 65.0633 691.963 70.87C695.343 76.59 699.937 81.0967 705.743 84.39C711.637 87.5967 718.18 89.2 725.373 89.2Z"/>
<path d="M886 50.07C891.98 51.37 896.573 53.97 899.78 57.87C903.073 61.6833 904.72 66.6233 904.72 72.69C904.72 80.49 901.816 86.5133 896.01 90.76C890.29 94.92 881.796 97 870.53 97H828.67V6H867.93C878.07 6 885.913 8.03666 891.46 12.11C897.093 16.1833 899.91 21.9467 899.91 29.4C899.91 34.4267 898.653 38.7167 896.14 42.27C893.713 45.7367 890.333 48.3367 886 50.07ZM838.29 13.93V46.95H867.28C874.646 46.95 880.323 45.5633 884.31 42.79C888.296 39.93 890.29 35.8133 890.29 30.44C890.29 25.0667 888.296 20.9933 884.31 18.22C880.323 15.36 874.646 13.93 867.28 13.93H838.29ZM870.4 89.07C878.546 89.07 884.7 87.6833 888.86 84.91C893.02 82.1367 895.1 77.8033 895.1 71.91C895.1 60.5567 886.866 54.88 870.4 54.88H838.29V89.07H870.4Z"/>
<path d="M983.747 72.69H933.047L922.127 97H912.117L953.717 6H963.207L1004.81 97H994.667L983.747 72.69ZM980.237 64.89L958.397 16.01L936.557 64.89H980.237Z"/>
<path d="M1044.95 97.78C1038.19 97.78 1031.69 96.6967 1025.45 94.53C1019.3 92.3633 1014.53 89.5033 1011.15 85.95L1014.92 78.54C1018.21 81.8333 1022.59 84.52 1028.05 86.6C1033.51 88.5933 1039.14 89.59 1044.95 89.59C1053.1 89.59 1059.21 88.1167 1063.28 85.17C1067.35 82.1367 1069.39 78.2367 1069.39 73.47C1069.39 69.83 1068.26 66.9267 1066.01 64.76C1063.84 62.5933 1061.16 60.9467 1057.95 59.82C1054.74 58.6067 1050.28 57.3067 1044.56 55.92C1037.71 54.1867 1032.25 52.54 1028.18 50.98C1024.11 49.3333 1020.6 46.8633 1017.65 43.57C1014.79 40.2767 1013.36 35.8133 1013.36 30.18C1013.36 25.5867 1014.57 21.4267 1017 17.7C1019.43 13.8867 1023.15 10.8533 1028.18 8.6C1033.21 6.34667 1039.45 5.22 1046.9 5.22C1052.1 5.22 1057.17 5.95667 1062.11 7.43C1067.14 8.81667 1071.47 10.7667 1075.11 13.28L1071.86 20.95C1068.05 18.4367 1063.97 16.5733 1059.64 15.36C1055.31 14.06 1051.06 13.41 1046.9 13.41C1038.93 13.41 1032.9 14.97 1028.83 18.09C1024.84 21.1233 1022.85 25.0667 1022.85 29.92C1022.85 33.56 1023.93 36.5067 1026.1 38.76C1028.35 40.9267 1031.13 42.6167 1034.42 43.83C1037.8 44.9567 1042.31 46.2133 1047.94 47.6C1054.61 49.2467 1059.99 50.8933 1064.06 52.54C1068.22 54.1 1071.73 56.5267 1074.59 59.82C1077.45 63.0267 1078.88 67.4033 1078.88 72.95C1078.88 77.5433 1077.62 81.7467 1075.11 85.56C1072.68 89.2867 1068.91 92.2767 1063.8 94.53C1058.69 96.6967 1052.4 97.78 1044.95 97.78Z"/>
<path d="M1099.84 6H1109.46V97H1099.84V6Z"/>
<path d="M1178.59 97.78C1169.58 97.78 1161.43 95.7867 1154.15 91.8C1146.96 87.8133 1141.28 82.31 1137.12 75.29C1133.05 68.1833 1131.01 60.2533 1131.01 51.5C1131.01 42.7467 1133.05 34.86 1137.12 27.84C1141.28 20.7333 1147 15.1867 1154.28 11.2C1161.56 7.21333 1169.71 5.22 1178.72 5.22C1185.48 5.22 1191.72 6.34667 1197.44 8.6C1203.16 10.8533 1208.01 14.1467 1212 18.48L1205.89 24.59C1198.78 17.3967 1189.81 13.8 1178.98 13.8C1171.79 13.8 1165.24 15.4467 1159.35 18.74C1153.46 22.0333 1148.82 26.54 1145.44 32.26C1142.15 37.98 1140.5 44.3933 1140.5 51.5C1140.5 58.6067 1142.15 65.02 1145.44 70.74C1148.82 76.46 1153.46 80.9667 1159.35 84.26C1165.24 87.5533 1171.79 89.2 1178.98 89.2C1189.9 89.2 1198.87 85.56 1205.89 78.28L1212 84.39C1208.01 88.7233 1203.12 92.06 1197.31 94.4C1191.59 96.6533 1185.35 97.78 1178.59 97.78Z"/>
<path d="M1257.09 97.78C1250.33 97.78 1243.83 96.6967 1237.59 94.53C1231.44 92.3633 1226.67 89.5033 1223.29 85.95L1227.06 78.54C1230.35 81.8333 1234.73 84.52 1240.19 86.6C1245.65 88.5933 1251.28 89.59 1257.09 89.59C1265.24 89.59 1271.35 88.1167 1275.42 85.17C1279.49 82.1367 1281.53 78.2367 1281.53 73.47C1281.53 69.83 1280.4 66.9267 1278.15 64.76C1275.98 62.5933 1273.3 60.9467 1270.09 59.82C1266.88 58.6067 1262.42 57.3067 1256.7 55.92C1249.85 54.1867 1244.39 52.54 1240.32 50.98C1236.25 49.3333 1232.74 46.8633 1229.79 43.57C1226.93 40.2767 1225.5 35.8133 1225.5 30.18C1225.5 25.5867 1226.71 21.4267 1229.14 17.7C1231.57 13.8867 1235.29 10.8533 1240.32 8.6C1245.35 6.34667 1251.59 5.22 1259.04 5.22C1264.24 5.22 1269.31 5.95667 1274.25 7.43C1279.28 8.81667 1283.61 10.7667 1287.25 13.28L1284 20.95C1280.19 18.4367 1276.11 16.5733 1271.78 15.36C1267.45 14.06 1263.2 13.41 1259.04 13.41C1251.07 13.41 1245.04 14.97 1240.97 18.09C1236.98 21.1233 1234.99 25.0667 1234.99 29.92C1234.99 33.56 1236.07 36.5067 1238.24 38.76C1240.49 40.9267 1243.27 42.6167 1246.56 43.83C1249.94 44.9567 1254.45 46.2133 1260.08 47.6C1266.75 49.2467 1272.13 50.8933 1276.2 52.54C1280.36 54.1 1283.87 56.5267 1286.73 59.82C1289.59 63.0267 1291.02 67.4033 1291.02 72.95C1291.02 77.5433 1289.76 81.7467 1287.25 85.56C1284.82 89.2867 1281.05 92.2767 1275.94 94.53C1270.83 96.6967 1264.54 97.78 1257.09 97.78Z"/>
</mask>
<path d="M142.75 6L112.07 97H101.93L75.28 19.39L48.5 97H38.49L7.81 6H17.69L43.95 84.26L71.12 6H80.09L106.87 84.65L133.52 6H142.75Z" stroke="#E3C73D" stroke-width="10" mask="url(#path-1-outside-1)"/>
<path d="M214.665 72.69H163.965L153.045 97H143.035L184.635 6H194.125L235.725 97H225.585L214.665 72.69ZM211.155 64.89L189.315 16.01L167.475 64.89H211.155Z" stroke="#E3C73D" stroke-width="10" mask="url(#path-1-outside-1)"/>
<path d="M263.889 14.32H231.909V6H305.489V14.32H273.509V97H263.889V14.32Z" stroke="#E3C73D" stroke-width="10" mask="url(#path-1-outside-1)"/>
<path d="M385.207 88.68V97H320.857V6H383.257V14.32H330.477V46.69H377.537V54.88H330.477V88.68H385.207Z" stroke="#E3C73D" stroke-width="10" mask="url(#path-1-outside-1)"/>
<path d="M469.96 97L449.16 67.75C446.82 68.01 444.393 68.14 441.88 68.14H417.44V97H407.82V6H441.88C453.493 6 462.593 8.77333 469.18 14.32C475.767 19.8667 479.06 27.4933 479.06 37.2C479.06 44.3067 477.24 50.33 473.6 55.27C470.047 60.1233 464.933 63.6333 458.26 65.8L480.49 97H469.96ZM441.62 59.95C450.633 59.95 457.523 57.9567 462.29 53.97C467.057 49.9833 469.44 44.3933 469.44 37.2C469.44 29.8333 467.057 24.2 462.29 20.3C457.523 16.3133 450.633 14.32 441.62 14.32H417.44V59.95H441.62Z" stroke="#E3C73D" stroke-width="10" mask="url(#path-1-outside-1)"/>
<path d="M501.765 6H511.385V88.68H562.345V97H501.765V6Z" stroke="#E3C73D" stroke-width="10" mask="url(#path-1-outside-1)"/>
<path d="M616.321 97.78C607.307 97.78 599.117 95.7867 591.751 91.8C584.471 87.7267 578.751 82.18 574.591 75.16C570.517 68.14 568.481 60.2533 568.481 51.5C568.481 42.7467 570.517 34.86 574.591 27.84C578.751 20.82 584.471 15.3167 591.751 11.33C599.117 7.25667 607.307 5.22 616.321 5.22C625.334 5.22 633.437 7.21333 640.631 11.2C647.911 15.1867 653.631 20.7333 657.791 27.84C661.951 34.86 664.031 42.7467 664.031 51.5C664.031 60.2533 661.951 68.1833 657.791 75.29C653.631 82.31 647.911 87.8133 640.631 91.8C633.437 95.7867 625.334 97.78 616.321 97.78ZM616.321 89.2C623.514 89.2 630.014 87.5967 635.821 84.39C641.627 81.0967 646.177 76.59 649.471 70.87C652.764 65.0633 654.411 58.6067 654.411 51.5C654.411 44.3933 652.764 37.98 649.471 32.26C646.177 26.4533 641.627 21.9467 635.821 18.74C630.014 15.4467 623.514 13.8 616.321 13.8C609.127 13.8 602.584 15.4467 596.691 18.74C590.884 21.9467 586.291 26.4533 582.911 32.26C579.617 37.98 577.971 44.3933 577.971 51.5C577.971 58.6067 579.617 65.0633 582.911 70.87C586.291 76.59 590.884 81.0967 596.691 84.39C602.584 87.5967 609.127 89.2 616.321 89.2Z" stroke="#E3C73D" stroke-width="10" mask="url(#path-1-outside-1)"/>
<path d="M725.373 97.78C716.36 97.78 708.17 95.7867 700.803 91.8C693.523 87.7267 687.803 82.18 683.643 75.16C679.57 68.14 677.533 60.2533 677.533 51.5C677.533 42.7467 679.57 34.86 683.643 27.84C687.803 20.82 693.523 15.3167 700.803 11.33C708.17 7.25667 716.36 5.22 725.373 5.22C734.387 5.22 742.49 7.21333 749.683 11.2C756.963 15.1867 762.683 20.7333 766.843 27.84C771.003 34.86 773.083 42.7467 773.083 51.5C773.083 60.2533 771.003 68.1833 766.843 75.29C762.683 82.31 756.963 87.8133 749.683 91.8C742.49 95.7867 734.387 97.78 725.373 97.78ZM725.373 89.2C732.567 89.2 739.067 87.5967 744.873 84.39C750.68 81.0967 755.23 76.59 758.523 70.87C761.817 65.0633 763.463 58.6067 763.463 51.5C763.463 44.3933 761.817 37.98 758.523 32.26C755.23 26.4533 750.68 21.9467 744.873 18.74C739.067 15.4467 732.567 13.8 725.373 13.8C718.18 13.8 711.637 15.4467 705.743 18.74C699.937 21.9467 695.343 26.4533 691.963 32.26C688.67 37.98 687.023 44.3933 687.023 51.5C687.023 58.6067 688.67 65.0633 691.963 70.87C695.343 76.59 699.937 81.0967 705.743 84.39C711.637 87.5967 718.18 89.2 725.373 89.2Z" stroke="#E3C73D" stroke-width="10" mask="url(#path-1-outside-1)"/>
<path d="M886 50.07C891.98 51.37 896.573 53.97 899.78 57.87C903.073 61.6833 904.72 66.6233 904.72 72.69C904.72 80.49 901.816 86.5133 896.01 90.76C890.29 94.92 881.796 97 870.53 97H828.67V6H867.93C878.07 6 885.913 8.03666 891.46 12.11C897.093 16.1833 899.91 21.9467 899.91 29.4C899.91 34.4267 898.653 38.7167 896.14 42.27C893.713 45.7367 890.333 48.3367 886 50.07ZM838.29 13.93V46.95H867.28C874.646 46.95 880.323 45.5633 884.31 42.79C888.296 39.93 890.29 35.8133 890.29 30.44C890.29 25.0667 888.296 20.9933 884.31 18.22C880.323 15.36 874.646 13.93 867.28 13.93H838.29ZM870.4 89.07C878.546 89.07 884.7 87.6833 888.86 84.91C893.02 82.1367 895.1 77.8033 895.1 71.91C895.1 60.5567 886.866 54.88 870.4 54.88H838.29V89.07H870.4Z" stroke="#E3C73D" stroke-width="10" mask="url(#path-1-outside-1)"/>
<path d="M983.747 72.69H933.047L922.127 97H912.117L953.717 6H963.207L1004.81 97H994.667L983.747 72.69ZM980.237 64.89L958.397 16.01L936.557 64.89H980.237Z" stroke="#E3C73D" stroke-width="10" mask="url(#path-1-outside-1)"/>
<path d="M1044.95 97.78C1038.19 97.78 1031.69 96.6967 1025.45 94.53C1019.3 92.3633 1014.53 89.5033 1011.15 85.95L1014.92 78.54C1018.21 81.8333 1022.59 84.52 1028.05 86.6C1033.51 88.5933 1039.14 89.59 1044.95 89.59C1053.1 89.59 1059.21 88.1167 1063.28 85.17C1067.35 82.1367 1069.39 78.2367 1069.39 73.47C1069.39 69.83 1068.26 66.9267 1066.01 64.76C1063.84 62.5933 1061.16 60.9467 1057.95 59.82C1054.74 58.6067 1050.28 57.3067 1044.56 55.92C1037.71 54.1867 1032.25 52.54 1028.18 50.98C1024.11 49.3333 1020.6 46.8633 1017.65 43.57C1014.79 40.2767 1013.36 35.8133 1013.36 30.18C1013.36 25.5867 1014.57 21.4267 1017 17.7C1019.43 13.8867 1023.15 10.8533 1028.18 8.6C1033.21 6.34667 1039.45 5.22 1046.9 5.22C1052.1 5.22 1057.17 5.95667 1062.11 7.43C1067.14 8.81667 1071.47 10.7667 1075.11 13.28L1071.86 20.95C1068.05 18.4367 1063.97 16.5733 1059.64 15.36C1055.31 14.06 1051.06 13.41 1046.9 13.41C1038.93 13.41 1032.9 14.97 1028.83 18.09C1024.84 21.1233 1022.85 25.0667 1022.85 29.92C1022.85 33.56 1023.93 36.5067 1026.1 38.76C1028.35 40.9267 1031.13 42.6167 1034.42 43.83C1037.8 44.9567 1042.31 46.2133 1047.94 47.6C1054.61 49.2467 1059.99 50.8933 1064.06 52.54C1068.22 54.1 1071.73 56.5267 1074.59 59.82C1077.45 63.0267 1078.88 67.4033 1078.88 72.95C1078.88 77.5433 1077.62 81.7467 1075.11 85.56C1072.68 89.2867 1068.91 92.2767 1063.8 94.53C1058.69 96.6967 1052.4 97.78 1044.95 97.78Z" stroke="#E3C73D" stroke-width="10" mask="url(#path-1-outside-1)"/>
<path d="M1099.84 6H1109.46V97H1099.84V6Z" stroke="#E3C73D" stroke-width="10" mask="url(#path-1-outside-1)"/>
<path d="M1178.59 97.78C1169.58 97.78 1161.43 95.7867 1154.15 91.8C1146.96 87.8133 1141.28 82.31 1137.12 75.29C1133.05 68.1833 1131.01 60.2533 1131.01 51.5C1131.01 42.7467 1133.05 34.86 1137.12 27.84C1141.28 20.7333 1147 15.1867 1154.28 11.2C1161.56 7.21333 1169.71 5.22 1178.72 5.22C1185.48 5.22 1191.72 6.34667 1197.44 8.6C1203.16 10.8533 1208.01 14.1467 1212 18.48L1205.89 24.59C1198.78 17.3967 1189.81 13.8 1178.98 13.8C1171.79 13.8 1165.24 15.4467 1159.35 18.74C1153.46 22.0333 1148.82 26.54 1145.44 32.26C1142.15 37.98 1140.5 44.3933 1140.5 51.5C1140.5 58.6067 1142.15 65.02 1145.44 70.74C1148.82 76.46 1153.46 80.9667 1159.35 84.26C1165.24 87.5533 1171.79 89.2 1178.98 89.2C1189.9 89.2 1198.87 85.56 1205.89 78.28L1212 84.39C1208.01 88.7233 1203.12 92.06 1197.31 94.4C1191.59 96.6533 1185.35 97.78 1178.59 97.78Z" stroke="#E3C73D" stroke-width="10" mask="url(#path-1-outside-1)"/>
<path d="M1257.09 97.78C1250.33 97.78 1243.83 96.6967 1237.59 94.53C1231.44 92.3633 1226.67 89.5033 1223.29 85.95L1227.06 78.54C1230.35 81.8333 1234.73 84.52 1240.19 86.6C1245.65 88.5933 1251.28 89.59 1257.09 89.59C1265.24 89.59 1271.35 88.1167 1275.42 85.17C1279.49 82.1367 1281.53 78.2367 1281.53 73.47C1281.53 69.83 1280.4 66.9267 1278.15 64.76C1275.98 62.5933 1273.3 60.9467 1270.09 59.82C1266.88 58.6067 1262.42 57.3067 1256.7 55.92C1249.85 54.1867 1244.39 52.54 1240.32 50.98C1236.25 49.3333 1232.74 46.8633 1229.79 43.57C1226.93 40.2767 1225.5 35.8133 1225.5 30.18C1225.5 25.5867 1226.71 21.4267 1229.14 17.7C1231.57 13.8867 1235.29 10.8533 1240.32 8.6C1245.35 6.34667 1251.59 5.22 1259.04 5.22C1264.24 5.22 1269.31 5.95667 1274.25 7.43C1279.28 8.81667 1283.61 10.7667 1287.25 13.28L1284 20.95C1280.19 18.4367 1276.11 16.5733 1271.78 15.36C1267.45 14.06 1263.2 13.41 1259.04 13.41C1251.07 13.41 1245.04 14.97 1240.97 18.09C1236.98 21.1233 1234.99 25.0667 1234.99 29.92C1234.99 33.56 1236.07 36.5067 1238.24 38.76C1240.49 40.9267 1243.27 42.6167 1246.56 43.83C1249.94 44.9567 1254.45 46.2133 1260.08 47.6C1266.75 49.2467 1272.13 50.8933 1276.2 52.54C1280.36 54.1 1283.87 56.5267 1286.73 59.82C1289.59 63.0267 1291.02 67.4033 1291.02 72.95C1291.02 77.5433 1289.76 81.7467 1287.25 85.56C1284.82 89.2867 1281.05 92.2767 1275.94 94.53C1270.83 96.6967 1264.54 97.78 1257.09 97.78Z" stroke="#E3C73D" stroke-width="10" mask="url(#path-1-outside-1)"/>
</svg>

<svg width="780" height="109" viewBox="0 0 780 109" fill="none" xmlns="http://www.w3.org/2000/svg">
<path d="M83.2 82.7H30.7L20.35 107H0.25L47.5 2H66.7L114.1 107H93.7L83.2 82.7ZM76.75 67.4L56.95 21.5L37.3 67.4H76.75Z" fill="#E3C73D"/>
<path d="M170.654 2C179.754 2 187.654 3.5 194.354 6.5C201.154 9.5 206.354 13.8 209.954 19.4C213.554 25 215.354 31.65 215.354 39.35C215.354 46.95 213.554 53.6 209.954 59.3C206.354 64.9 201.154 69.2 194.354 72.2C187.654 75.2 179.754 76.7 170.654 76.7H146.954V107H127.454V2H170.654ZM169.754 60.2C178.254 60.2 184.704 58.4 189.104 54.8C193.504 51.2 195.704 46.05 195.704 39.35C195.704 32.65 193.504 27.5 189.104 23.9C184.704 20.3 178.254 18.5 169.754 18.5H146.954V60.2H169.754Z" fill="#E3C73D"/>
<path d="M278.027 2C287.127 2 295.027 3.5 301.727 6.5C308.527 9.5 313.727 13.8 317.327 19.4C320.927 25 322.727 31.65 322.727 39.35C322.727 46.95 320.927 53.6 317.327 59.3C313.727 64.9 308.527 69.2 301.727 72.2C295.027 75.2 287.127 76.7 278.027 76.7H254.327V107H234.827V2H278.027ZM277.127 60.2C285.627 60.2 292.077 58.4 296.477 54.8C300.877 51.2 303.077 46.05 303.077 39.35C303.077 32.65 300.877 27.5 296.477 23.9C292.077 20.3 285.627 18.5 277.127 18.5H254.327V60.2H277.127Z" fill="#E3C73D"/>
<path d="M342.2 2H361.7V90.5H416.6V107H342.2V2Z" fill="#E3C73D"/>
<path d="M466.308 69.95V107H446.808V70.25L405.558 2H426.408L457.158 53.15L488.208 2H507.408L466.308 69.95Z" fill="#E3C73D"/>
<path d="M518.713 2H538.213V107H518.713V2Z" fill="#E3C73D"/>
<path d="M659.914 2V107H643.864L585.964 35.9V107H566.614V2H582.664L640.564 73.1V2H659.914Z" fill="#E3C73D"/>
<path d="M759.749 53.3H778.199V95.15C772.799 99.45 766.499 102.75 759.299 105.05C752.099 107.35 744.699 108.5 737.099 108.5C726.399 108.5 716.749 106.2 708.149 101.6C699.549 96.9 692.799 90.45 687.899 82.25C682.999 74.05 680.549 64.8 680.549 54.5C680.549 44.2 682.999 34.95 687.899 26.75C692.799 18.55 699.549 12.15 708.149 7.55C716.849 2.85 726.599 0.5 737.399 0.5C746.199 0.5 754.199 1.95 761.399 4.85C768.599 7.75 774.649 12 779.549 17.6L767.249 29.6C759.249 21.6 749.599 17.6 738.299 17.6C730.899 17.6 724.299 19.15 718.499 22.25C712.799 25.35 708.299 29.7 704.999 35.3C701.799 40.9 700.199 47.3 700.199 54.5C700.199 61.5 701.799 67.8 704.999 73.4C708.299 79 712.799 83.4 718.499 86.6C724.299 89.8 730.849 91.4 738.149 91.4C746.349 91.4 753.549 89.6 759.749 86V53.3Z" fill="#E3C73D"/>
</svg>

